<?xml version="1.0" standalone="no"?>
<!DOCTYPE svg PUBLIC "-//W3C//DTD SVG 20010904//EN"
 "http://www.w3.org/TR/2001/REC-SVG-20010904/DTD/svg10.dtd">
<svg version="1.0" xmlns="http://www.w3.org/2000/svg"
 width="100.000000pt" height="100.000000pt" viewBox="0 0 100.000000 100.000000"
 preserveAspectRatio="xMidYMid meet">

<g transform="translate(0.000000,100.000000) scale(0.100000,-0.100000)"
fill="#000000" stroke="none">
<path d="M334 927 c-18 -15 -34 -42 -42 -71 l-12 -46 -50 0 c-90 0 -132 -40
-115 -108 20 -82 20 -86 -30 -126 -43 -35 -46 -41 -43 -79 3 -36 9 -46 45 -72
46 -32 45 -27 28 -132 -7 -38 -5 -45 24 -74 29 -28 36 -31 75 -26 53 8 71 -5
85 -59 21 -79 87 -101 149 -49 34 29 73 32 93 8 8 -9 28 -22 46 -29 56 -24
102 9 118 84 8 40 30 52 83 45 36 -5 45 -2 72 25 34 34 37 62 15 115 -18 44
-14 54 38 92 35 26 43 37 45 70 3 36 -1 43 -48 87 l-51 47 16 37 c38 91 0 144
-104 144 l-49 0 -17 50 c-30 90 -90 111 -157 55 -16 -14 -38 -25 -48 -25 -10
0 -32 11 -48 25 -45 38 -82 42 -118 12z m98 -54 c21 -20 39 -28 67 -28 26 0
47 9 70 28 54 45 78 36 100 -40 15 -55 42 -73 107 -73 71 0 82 -15 58 -79 -22
-61 -10 -97 44 -132 26 -17 37 -31 37 -49 0 -18 -11 -32 -37 -49 -54 -35 -66
-71 -44 -132 24 -64 13 -79 -58 -79 -65 0 -92 -18 -107 -73 -22 -76 -46 -85
-100 -40 -44 38 -98 38 -137 0 -30 -29 -63 -35 -79 -14 -5 6 -15 31 -22 54
-15 55 -42 73 -107 73 -71 0 -82 15 -58 79 22 61 10 97 -44 132 -50 33 -50 65
0 98 54 35 66 71 44 132 -24 64 -13 79 58 79 65 0 92 18 107 73 7 23 17 48 22
55 16 20 49 14 79 -15z"/>
<path d="M352 647 c-29 -31 -28 -62 4 -93 39 -40 95 -20 109 38 5 21 1 33 -19
52 -31 32 -66 33 -94 3z m66 -45 c3 -16 -2 -22 -17 -22 -26 0 -36 17 -20 36
16 19 33 13 37 -14z"/>
<path d="M514 549 c-49 -55 -89 -106 -89 -112 0 -7 7 -13 16 -15 17 -3 194
190 194 211 0 7 -7 13 -16 15 -10 2 -50 -36 -105 -99z"/>
<path d="M572 460 c-20 -9 -42 -45 -42 -71 0 -19 49 -59 73 -59 29 0 67 39 67
69 0 24 -41 71 -62 70 -7 0 -23 -4 -36 -9z m54 -51 c3 -6 0 -18 -9 -26 -18
-18 -37 -9 -37 18 0 21 34 27 46 8z"/>
<path d="M365 381 c-8 -15 3 -31 21 -31 9 0 14 7 12 17 -4 20 -24 28 -33 14z"/>
</g>
</svg>
